<svg width="164" height="56" viewBox="0 0 164 56" fill="none" xmlns="http://www.w3.org/2000/svg">
<g clip-path="url(#clip0_2236_8887)">
<path d="M19.9796 0C3.99449 0 0 3.99449 0 19.9796C0 35.9646 3.99449 39.9591 19.9796 39.9591C35.9646 39.9591 39.9591 35.9646 39.9591 19.9796C39.9591 3.99449 35.9652 0 19.9796 0ZM19.9796 6.93501H26.1126V13.0681H19.9796V6.93501ZM16.9128 31.4519C11.8331 31.4519 7.72112 27.3317 7.72112 22.2603C7.72112 17.1888 11.8413 13.0686 16.9128 13.0686C17.0385 13.0686 17.1724 13.0686 17.2982 13.0763V13.0686H19.9796V19.2017H26.1126V22.2685C26.1126 27.3404 21.9924 31.4525 16.9128 31.4525V31.4519ZM29.1712 31.4519C27.4804 31.4519 26.1044 30.076 26.1044 28.3851C26.1044 26.6943 27.4804 25.3183 29.1712 25.3183C30.8621 25.3183 32.2375 26.6861 32.2375 28.3851C32.2375 30.0842 30.8697 31.4519 29.1712 31.4519Z" fill="#00112C"/>
<path d="M16.9025 19.183C15.2128 19.183 13.8379 20.5585 13.8379 22.2477C13.8379 23.9369 15.2133 25.3128 16.9025 25.3128C18.5917 25.3128 19.9671 23.9374 19.9671 22.2477V19.183H16.9025Z" fill="#00112C"/>
<path d="M63.8554 27.7576C63.8554 28.7252 63.9107 29.7791 63.9735 30.3663H60.2748C60.2196 30.0727 60.1332 29.3675 60.1332 28.6935C59.4947 29.8349 58.0351 30.715 56.1114 30.715C52.0343 30.715 49.1162 27.4963 49.1162 23.1273C49.1162 18.7583 51.9397 15.6035 55.9927 15.6035C58.4691 15.6035 59.6357 16.6263 60.0381 17.3873V9.15723H63.8549V27.7576H63.8554ZM56.5766 27.2344C58.556 27.2344 60.1015 25.7119 60.1015 23.1038C60.1015 20.4956 58.556 19.0918 56.5766 19.0918C54.5971 19.0918 53.02 20.5585 53.02 23.1355C53.02 25.7125 54.5342 27.2344 56.5766 27.2344Z" fill="#00112C"/>
<path d="M71.3788 22.081L74.9037 21.5578C75.716 21.4386 75.9839 21.0346 75.9839 20.535C75.9839 19.5122 75.1951 18.6638 73.5627 18.6638C71.9304 18.6638 70.9447 19.75 70.8266 21.0106L67.3881 20.2808C67.6248 18.0291 69.6907 15.5396 73.531 15.5396C78.0738 15.5396 79.769 18.1165 79.769 21.0182V28.1063C79.769 28.8673 79.8559 29.8901 79.9423 30.3897H76.3857C76.2988 30.0093 76.2436 29.2161 76.2436 28.6617C75.5181 29.8032 74.146 30.8025 72.0167 30.8025C68.957 30.8025 67.0962 28.7252 67.0962 26.4658C67.0962 23.8647 68.9887 22.4303 71.3782 22.081H71.3788ZM75.9762 24.5388V23.8964L72.7427 24.3961C71.7489 24.5388 70.9688 25.1018 70.9688 26.2116C70.9688 27.06 71.5838 27.8844 72.8296 27.8844C74.462 27.8762 75.9762 27.0835 75.9762 24.5382V24.5388Z" fill="#00112C"/>
<path d="M87.5454 30.3662H83.6733V15.9523H87.435V17.736C88.3102 16.2453 90.0294 15.5718 91.5749 15.5718C95.1315 15.5718 96.7638 18.1165 96.7638 21.2801V30.3586H92.8918V21.9541C92.8918 20.3447 92.1029 19.0841 90.2421 19.0841C88.5545 19.0841 87.5612 20.4005 87.5612 22.0733V30.3662H87.5454Z" fill="#00112C"/>
<path d="M103.137 25.244C104.619 25.244 105.817 26.4412 105.817 27.9079C105.817 29.3746 104.627 30.5718 103.137 30.5718C101.646 30.5718 100.487 29.3746 100.487 27.9079C100.487 26.4412 101.677 25.244 103.137 25.244Z" fill="#00112C"/>
<path d="M112.024 23.159C112.024 25.7677 113.711 27.2262 115.691 27.2262C117.67 27.2262 118.663 25.9098 118.979 24.7919L122.386 25.9333C121.747 28.3353 119.499 30.7932 115.683 30.7932C111.456 30.7932 108.136 27.5744 108.136 23.1502C108.136 18.726 111.4 15.5073 115.564 15.5073C119.468 15.5073 121.684 17.9416 122.291 20.3671L118.821 21.5408C118.474 20.3436 117.567 19.1065 115.643 19.1065C113.688 19.1147 112.024 20.5497 112.024 23.1579V23.159Z" fill="#00112C"/>
<path d="M139.056 23.159C139.056 27.5832 135.823 30.8019 131.541 30.8019C127.259 30.8019 124.026 27.5832 124.026 23.159C124.026 18.7348 127.259 15.5161 131.541 15.5161C135.822 15.5161 139.056 18.7113 139.056 23.159ZM135.184 23.159C135.184 20.4317 133.433 19.0601 131.541 19.0601C129.648 19.0601 127.898 20.4399 127.898 23.159C127.898 25.8781 129.649 27.2579 131.541 27.2579C133.433 27.2579 135.184 25.8863 135.184 23.159Z" fill="#00112C"/>
<path d="M142.125 30.3663V15.9523H145.823V17.7126C146.612 16.3088 148.441 15.5478 150.018 15.5478C151.974 15.5478 153.543 16.3962 154.269 17.9504C155.405 16.1901 156.918 15.5478 158.812 15.5478C161.461 15.5478 164 17.1572 164 21.0265V30.3663H160.239V21.8115C160.239 20.2573 159.482 19.0842 157.707 19.0842C156.043 19.0842 155.058 20.3765 155.058 21.9225V30.3581H151.209V21.8115C151.209 20.2573 150.42 19.0842 148.677 19.0842C146.935 19.0842 145.997 20.3448 145.997 21.9225V30.3581H142.125V30.3663Z" fill="#00112C"/>
<path d="M73.889 45.6297H72.9209V45.6669H73.889V45.6297Z" fill="#00112C"/>
<path d="M76.6995 52.7265H75.3279L74.743 51.1997H72.0692L71.4843 52.7265H70.1411L72.9723 45.6614H73.8874L76.6995 52.7265ZM72.4437 50.1003H74.3843L73.4124 47.4457L72.4437 50.1003Z" fill="#00112C"/>
<path d="M140.177 45.5286C141.572 45.5286 142.459 46.2688 142.459 47.3867C142.494 47.9771 142.211 48.5418 141.718 48.8671C142.402 49.1661 142.838 49.8483 142.822 50.5945C142.822 51.8426 141.907 52.714 140.381 52.714H137.677V45.5291H140.177V45.5286ZM141.267 47.5463C141.267 47.0527 140.875 46.6755 140.162 46.6755H138.956V48.4171H140.264C140.904 48.4319 141.267 48.1411 141.267 47.5463ZM141.543 50.5366C141.543 49.927 141.107 49.5351 140.409 49.5351H138.971V51.5528H140.482C141.151 51.5528 141.543 51.2188 141.543 50.5366Z" fill="#00112C"/>
<path d="M145.178 47.6338V48.5484C145.454 47.8951 145.948 47.5321 146.544 47.5321C146.736 47.5234 146.928 47.548 147.111 47.6048V48.8387C146.939 48.7758 146.756 48.7463 146.573 48.7517C145.73 48.7517 145.163 49.5357 145.163 50.5809V52.7293H143.957V47.6491H145.177V47.6349L145.178 47.6338Z" fill="#00112C"/>
<path d="M149.668 49.6799H150.991C150.991 48.9835 150.584 48.6057 149.988 48.6057C149.49 48.6041 149.031 48.878 148.796 49.3169L147.851 48.6347C148.335 47.9087 149.16 47.4861 150.031 47.5173C151.398 47.5173 152.183 48.3302 152.183 49.5782V52.6992H151.165L151.078 51.9732C150.702 52.5127 150.078 52.8243 149.421 52.8003C148.302 52.8003 147.647 52.205 147.647 51.2324C147.647 50.2599 148.36 49.6794 149.668 49.6794L149.668 49.6799ZM150.991 50.5797H149.755C149.189 50.5797 148.912 50.8263 148.912 51.1893C148.912 51.5522 149.174 51.7698 149.668 51.7698C150.357 51.7911 150.94 51.2663 150.991 50.5797H150.991Z" fill="#00112C"/>
<path d="M154.727 47.6338V48.2291C155.101 47.7901 155.647 47.5359 156.224 47.5327C157.343 47.5327 158.084 48.2876 158.084 49.6663V52.7145H156.849V49.8112C156.849 49.013 156.442 48.6211 155.86 48.6211C155.148 48.6211 154.727 49.013 154.727 49.8839V52.7145H153.491V47.6343H154.727V47.6338Z" fill="#00112C"/>
<path d="M164 52.714H162.765V52.2061C162.4 52.6139 161.873 52.8375 161.326 52.8156C159.916 52.8156 159.102 51.6983 159.102 50.1741C159.102 48.65 159.916 47.5327 161.311 47.5327C161.863 47.5064 162.397 47.7305 162.765 48.1422V45.5297H164V52.7145V52.714ZM162.866 50.1736C162.866 49.3028 162.489 48.6205 161.631 48.6205C160.773 48.6205 160.395 49.317 160.395 50.1736C160.395 51.0302 160.788 51.7267 161.631 51.7267C162.474 51.7267 162.866 51.0592 162.866 50.1736Z" fill="#00112C"/>
<g clip-path="url(#clip1_2236_8887)">
<path d="M93.3875 46.3409C95.1942 46.3885 96.6199 47.8918 96.5723 49.6985C96.5248 51.5053 95.0214 52.931 93.2147 52.8834C91.449 52.837 90.0386 51.3976 90.0287 49.6313C90.0397 47.8032 91.5304 46.33 93.359 46.3409C93.3683 46.3409 93.3782 46.3409 93.3875 46.3409ZM93.3875 51.1647C94.2452 51.1898 94.9608 50.5153 94.9859 49.6575C95.0111 48.7998 94.3365 48.0842 93.4787 48.0591C92.621 48.0339 91.9054 48.7085 91.8803 49.5662C91.8803 49.5837 91.8797 49.6007 91.8797 49.6182C91.8623 50.4546 92.5259 51.1467 93.3623 51.1642C93.3705 51.1642 93.3787 51.1642 93.3875 51.1642M105.582 48.2455C105.582 50.8881 103.682 52.7047 100.947 52.7047H97.5295C97.3765 52.7063 97.2507 52.5833 97.2491 52.4302C97.2491 52.4242 97.2491 52.4182 97.2491 52.4127V44.0925C97.2458 43.941 97.3661 43.8159 97.5175 43.8131C97.5213 43.8131 97.5252 43.8131 97.529 43.8131H100.946C103.681 43.8131 105.581 45.592 105.581 48.2466M103.584 48.2466C103.584 46.6968 102.541 45.5663 101.027 45.5663H99.157V50.9526H101.027C102.541 50.9526 103.584 49.7712 103.584 48.2466ZM109.052 46.3409C109.879 46.3409 110.54 46.6968 110.833 47.1795V46.7985C110.837 46.6509 110.952 46.5301 111.1 46.5191H112.385C112.534 46.5213 112.654 46.6449 112.652 46.7946V52.439C112.655 52.5828 112.542 52.7025 112.397 52.7058C112.393 52.7058 112.389 52.7058 112.385 52.7058H111.1C110.953 52.7052 110.834 52.586 110.833 52.439V52.0448C110.54 52.5275 109.866 52.8834 109.039 52.8834C107.436 52.8834 105.948 51.6004 105.948 49.6056C105.948 47.6108 107.449 46.3409 109.052 46.3409ZM109.395 51.1773C110.256 51.2161 110.986 50.5497 111.025 49.6887C111.064 48.8277 110.398 48.0979 109.537 48.0591C108.676 48.0203 107.946 48.6867 107.907 49.5477C107.906 49.5712 107.905 49.5947 107.905 49.6182C107.862 50.4349 108.489 51.1319 109.306 51.1751C109.335 51.1767 109.365 51.1773 109.395 51.1773ZM116.226 46.3404C117.066 46.3404 117.74 46.6962 118.032 47.1533V44.0794C118.035 43.9296 118.159 43.8098 118.308 43.8126H119.597C119.741 43.8093 119.86 43.923 119.864 44.0668C119.864 44.0712 119.864 44.075 119.864 44.0794V52.439C119.867 52.5828 119.753 52.7025 119.609 52.7058C119.605 52.7058 119.601 52.7058 119.597 52.7058H118.312C118.165 52.7052 118.045 52.586 118.045 52.439V52.0448C117.62 52.6002 116.95 52.9135 116.251 52.8834C114.648 52.8834 113.16 51.6004 113.16 49.6056C113.16 47.6108 114.635 46.3409 116.226 46.3409M116.608 51.1937C117.478 51.2462 118.225 50.583 118.278 49.7128C118.33 48.8425 117.667 48.0952 116.797 48.0427C115.927 47.9902 115.179 48.6533 115.127 49.5236C115.125 49.5553 115.124 49.5865 115.124 49.6182C115.075 50.4376 115.7 51.1417 116.519 51.1909C116.549 51.1926 116.578 51.1937 116.608 51.1937ZM123.438 46.3409C124.278 46.3409 124.952 46.6968 125.244 47.1538V44.0794C125.247 43.9296 125.371 43.8098 125.521 43.8126H126.809C126.953 43.8093 127.073 43.923 127.076 44.0668C127.076 44.0712 127.076 44.075 127.076 44.0794V52.439C127.079 52.5828 126.965 52.7025 126.822 52.7058C126.817 52.7058 126.813 52.7058 126.809 52.7058H125.524C125.377 52.7052 125.258 52.586 125.257 52.439V52.0448C124.832 52.6002 124.162 52.9135 123.463 52.8834C121.861 52.8834 120.372 51.6004 120.372 49.6056C120.372 47.6108 121.847 46.3409 123.438 46.3409M123.82 51.1937C124.69 51.2462 125.437 50.583 125.49 49.7128C125.542 48.843 124.879 48.0952 124.009 48.0427C123.139 47.9902 122.391 48.6533 122.339 49.5236C122.337 49.5553 122.336 49.5865 122.336 49.6182C122.287 50.4376 122.912 51.1417 123.731 51.1909C123.761 51.1926 123.79 51.1937 123.82 51.1937ZM133.6 46.5186H132.318C132.147 46.5175 132.001 46.6416 131.975 46.811L130.791 51.2298L129.524 46.811C129.451 46.5754 129.336 46.5186 129.171 46.5186H127.819C127.501 46.5186 127.443 46.7345 127.507 46.9504L129.221 52.4384C129.258 52.5975 129.402 52.709 129.565 52.7052H130.341L130.176 53.2502C130.078 53.6356 129.711 53.8898 129.316 53.8477C129.026 53.8384 128.745 53.7379 128.516 53.5596C128.442 53.505 128.354 53.4744 128.263 53.4722C128.147 53.4722 128.068 53.5241 127.96 53.6826L127.58 54.2523C127.509 54.3397 127.468 54.4485 127.466 54.5611C127.466 54.7634 127.668 54.8897 127.91 55.028C128.382 55.2767 128.91 55.3997 129.443 55.385C130.728 55.385 131.555 54.6863 131.924 53.5176L133.842 46.9504C133.93 46.6962 133.854 46.5186 133.6 46.5186H133.6ZM87.9038 51.4916C87.1101 52.4067 85.9462 52.9151 84.7354 52.8752C82.2491 52.8758 80.3052 51.0078 80.3052 48.3483C80.3052 45.6887 82.4033 43.6786 85.0541 43.6786C87.0106 43.6786 88.5751 44.5189 89.2694 46.2092C89.2891 46.2534 89.3 46.3016 89.3017 46.3502C89.3017 46.4306 89.2492 46.4907 89.0803 46.5497L87.8415 47.0264C87.7666 47.057 87.683 47.0581 87.607 47.0297C87.5409 46.9909 87.4889 46.9313 87.4589 46.8602C86.9947 45.9429 86.0326 45.387 85.0065 45.4427C83.4272 45.4427 82.2967 46.6749 82.2967 48.2712C82.2967 49.8675 83.2605 51.0914 85.0513 51.0914C85.8402 51.1144 86.5957 50.7706 87.0964 50.1605H85.9779C85.8205 50.1632 85.6904 50.0375 85.6877 49.88C85.6877 49.8768 85.6877 49.8735 85.6877 49.8707V48.9179C85.6849 48.7605 85.8107 48.6304 85.9686 48.6282C85.9719 48.6282 85.9752 48.6282 85.9779 48.6282H89.2547C89.4066 48.62 89.5362 48.7364 89.5444 48.8878C89.5444 48.8938 89.5444 48.8993 89.5444 48.9053V52.4133C89.5471 52.5707 89.4214 52.7008 89.2634 52.703C89.2601 52.703 89.2568 52.703 89.2541 52.703H88.1941C88.0367 52.7058 87.9066 52.58 87.9038 52.4226C87.9038 52.4193 87.9038 52.416 87.9038 52.4133V51.4922V51.4916Z" fill="#00112C"/>
</g>
</g>
<defs>
<clipPath id="clip0_2236_8887">
<rect width="164" height="55.3899" fill="white"/>
</clipPath>
<clipPath id="clip1_2236_8887">
<rect width="53.5744" height="11.7074" fill="white" transform="translate(80.3052 43.6786)"/>
</clipPath>
</defs>
</svg>
