<svg width="263" height="35" viewBox="0 0 263 35" fill="none" xmlns="http://www.w3.org/2000/svg">
<g clip-path="url(#clip0_2080_155750)">
<path d="M152.817 3.8623H152.528V31.9603H152.817V3.8623Z" fill="#00112C"/>
<path d="M17.1886 0C3.4381 0 0.00244141 3.43566 0.00244141 17.1862C0.00244141 30.9367 3.4381 34.3723 17.1886 34.3723C30.9391 34.3723 34.3748 30.9367 34.3748 17.1862C34.3748 3.43566 30.9391 0 17.1886 0ZM17.1886 5.96572H22.4644V11.2415H17.1886V5.96572ZM14.5507 27.0548C10.1814 27.0548 6.64407 23.5104 6.64407 19.1482C6.64407 14.7859 10.1884 11.2415 14.5507 11.2415C14.6586 11.2415 14.7743 11.2415 14.8821 11.2485V11.2415H17.1886V16.5173H22.4644V19.1552C22.4644 23.5175 18.92 27.0557 14.5507 27.0557V27.0548ZM25.0953 27.0548C23.6409 27.0548 22.4574 25.8713 22.4574 24.4169C22.4574 22.9625 23.6409 21.779 25.0953 21.779C26.5497 21.779 27.7332 22.9555 27.7332 24.4169C27.7332 25.8783 26.5567 27.0548 25.0953 27.0548Z" fill="#00112C"/>
<path d="M14.5414 16.502C13.0879 16.502 11.9053 17.6846 11.9053 19.1381C11.9053 20.5916 13.0879 21.7742 14.5414 21.7742C15.9949 21.7742 17.1775 20.5916 17.1775 19.1381V16.502H14.5414Z" fill="#00112C"/>
<path d="M54.9313 23.877C54.9313 24.709 54.9786 25.6163 55.033 26.1213H51.8516C51.8042 25.8688 51.7297 25.2621 51.7297 24.6818C51.18 25.6636 49.9255 26.4211 48.2704 26.4211C44.7628 26.4211 42.2529 23.6526 42.2529 19.8943C42.2529 16.136 44.6813 13.4219 48.1687 13.4219C50.299 13.4219 51.3028 14.3012 51.649 14.956V7.87695H54.9322V23.877H54.9313ZM48.6701 23.4273C50.3726 23.4273 51.7025 22.1175 51.7025 19.8741C51.7025 17.6307 50.3726 16.4236 48.6701 16.4236C46.9676 16.4236 45.6106 17.6851 45.6106 19.9022C45.6106 22.1193 46.9133 23.4281 48.6701 23.4281V23.4273Z" fill="#00112C"/>
<path d="M61.402 18.9947L64.4344 18.545C65.1331 18.4424 65.3637 18.0952 65.3637 17.6657C65.3637 16.7864 64.6851 16.0561 63.2807 16.0561C61.8763 16.0561 61.0286 16.9906 60.9269 18.0751L57.969 17.4474C58.1724 15.5108 59.9494 13.3691 63.2535 13.3691C67.1608 13.3691 68.6196 15.5854 68.6196 18.0821V24.1793C68.6196 24.8342 68.6941 25.7135 68.7686 26.1431H65.7091C65.6346 25.8161 65.5872 25.134 65.5872 24.6562C64.963 25.6381 63.783 26.4972 61.9508 26.4972C59.3191 26.4972 57.7183 24.7106 57.7183 22.767C57.7183 20.5298 59.3462 19.2954 61.4011 18.9956L61.402 18.9947ZM65.3567 21.1092V20.5569L62.575 20.9865C61.7202 21.1092 61.0487 21.5932 61.0487 22.5487C61.0487 23.2781 61.5773 23.9882 62.6495 23.9882C64.0539 23.9812 65.3558 23.2991 65.3558 21.1101L65.3567 21.1092Z" fill="#00112C"/>
<path d="M75.3085 26.1221H71.978V13.7234H75.2138V15.2575C75.9669 13.975 77.4458 13.3955 78.7748 13.3955C81.8344 13.3955 83.2388 15.5845 83.2388 18.3057V26.1151H79.9083V18.8861C79.9083 17.5018 79.2298 16.4174 77.629 16.4174C76.1773 16.4174 75.3225 17.5492 75.3225 18.9886V26.1221H75.3085Z" fill="#00112C"/>
<path d="M88.7203 21.7163C89.9958 21.7163 91.0268 22.7464 91.0268 24.0079C91.0268 25.2694 90.0028 26.2995 88.7203 26.2995C87.4377 26.2995 86.4409 25.2694 86.4409 24.0079C86.4409 22.7464 87.4649 21.7163 88.7203 21.7163Z" fill="#00112C"/>
<path d="M96.3641 19.921C96.3641 22.1652 97.8159 23.4198 99.5184 23.4198C101.221 23.4198 102.076 22.288 102.347 21.3263L105.278 22.3081C104.728 24.3744 102.795 26.489 99.5122 26.489C95.8758 26.489 93.0205 23.7205 93.0205 19.9148C93.0205 16.1092 95.8285 13.3398 99.4105 13.3398C102.768 13.3398 104.674 15.4333 105.197 17.5207L102.212 18.5297C101.913 17.4996 101.134 16.4362 99.478 16.4362C97.7957 16.4432 96.365 17.6776 96.365 19.921H96.3641Z" fill="#00112C"/>
<path d="M119.618 19.9208C119.618 23.7264 116.836 26.4958 113.154 26.4958C109.471 26.4958 106.689 23.7273 106.689 19.9208C106.689 16.1143 109.471 13.3467 113.154 13.3467C116.836 13.3467 119.618 16.095 119.618 19.9208ZM116.288 19.9208C116.288 17.5748 114.781 16.3949 113.154 16.3949C111.526 16.3949 110.019 17.5819 110.019 19.9208C110.019 22.2598 111.526 23.4468 113.154 23.4468C114.781 23.4468 116.288 22.2668 116.288 19.9208Z" fill="#00112C"/>
<path d="M122.258 26.1198V13.7211H125.439V15.2351C126.118 14.0279 127.691 13.373 129.048 13.373C130.731 13.373 132.081 14.1033 132.705 15.4394C133.682 13.9253 134.984 13.373 136.612 13.373C138.892 13.373 141.075 14.7573 141.075 18.086V26.1198H137.84V18.761C137.84 17.4241 137.188 16.4151 135.662 16.4151C134.23 16.4151 133.383 17.5267 133.383 18.8566V26.1128H130.072V18.761C130.072 17.4241 129.394 16.4151 127.895 16.4151C126.396 16.4151 125.588 17.4995 125.588 18.8566V26.1128H122.258V26.1198Z" fill="#00112C"/>
<path d="M171.152 23.0769H169.709L169.094 21.4515H166.281L165.665 23.0769H164.252L167.231 15.5542H168.194L171.153 23.0769H171.152ZM166.674 20.2803H168.716L167.693 17.4539L166.673 20.2803H166.674Z" fill="#00112C"/>
<path d="M237.937 15.4131C239.405 15.4131 240.338 16.2012 240.338 17.3917C240.338 18.1027 240.093 18.5814 239.558 18.968C240.291 19.323 240.72 19.9726 240.72 20.8072C240.72 22.1362 239.757 23.0638 238.152 23.0638H235.308V15.4131H237.938H237.937ZM239.083 17.5618C239.083 17.0367 238.67 16.6343 237.921 16.6343H236.652V18.4893H238.028C238.701 18.5051 239.083 18.1956 239.083 17.5618ZM239.374 20.7458C239.374 20.0971 238.915 19.6798 238.18 19.6798H236.666V21.8285H238.257C238.96 21.8285 239.373 21.4735 239.373 20.7467L239.374 20.7458Z" fill="#00112C"/>
<path d="M243.198 17.6537V18.6277C243.489 17.9325 244.008 17.5459 244.636 17.5459C244.926 17.5459 245.11 17.5766 245.232 17.623V18.9372C245.11 18.8907 244.942 18.8442 244.667 18.8442C243.78 18.8442 243.183 19.6788 243.183 20.7913V23.0785H241.914V17.6695H243.198V17.6537Z" fill="#00112C"/>
<path d="M247.923 19.8333H249.314C249.314 19.0916 248.887 18.6892 248.259 18.6892C247.723 18.6892 247.281 18.9671 247.005 19.4467L246.011 18.7199C246.607 17.9011 247.326 17.5303 248.305 17.5303C249.742 17.5303 250.568 18.3955 250.568 19.7246V23.0471H249.498L249.406 22.2748C248.993 22.8464 248.427 23.1558 247.662 23.1558C246.485 23.1558 245.796 22.522 245.796 21.4867C245.796 20.4513 246.546 19.8333 247.922 19.8333H247.923ZM249.314 20.7915H248.014C247.418 20.7915 247.127 21.0545 247.127 21.4402C247.127 21.8259 247.402 22.0583 247.922 22.0583C248.687 22.0583 249.314 21.4551 249.314 20.7906L249.314 20.7915Z" fill="#00112C"/>
<path d="M253.244 17.6537V18.2876C253.642 17.8238 254.207 17.5459 254.819 17.5459C255.997 17.5459 256.777 18.3498 256.777 19.8182V23.0636H255.477V19.9725C255.477 19.1221 255.049 18.7049 254.437 18.7049C253.688 18.7049 253.244 19.1221 253.244 20.0497V23.0636H251.944V17.6546H253.244V17.6537Z" fill="#00112C"/>
<path d="M263.001 23.0627H261.701V22.5218C261.334 22.9698 260.768 23.1705 260.187 23.1705C258.704 23.1705 257.847 21.9809 257.847 20.3573C257.847 18.7337 258.704 17.5441 260.171 17.5441C260.737 17.5441 261.334 17.7299 261.7 18.1928V15.4111H263V23.0618L263.001 23.0627ZM261.808 20.3582C261.808 19.4306 261.41 18.7048 260.508 18.7048C259.606 18.7048 259.208 19.4464 259.208 20.3582C259.208 21.2699 259.621 22.0116 260.508 22.0116C261.395 22.0116 261.808 21.3006 261.808 20.3582Z" fill="#00112C"/>
<g clip-path="url(#clip1_2080_155750)">
<path d="M188.748 16.2488C190.715 16.2488 192.295 17.7909 192.295 19.752C192.295 21.7131 190.716 23.2148 188.748 23.2148C186.779 23.2148 185.215 21.6999 185.215 19.752C185.215 17.804 186.793 16.2488 188.748 16.2488ZM188.748 21.3852C189.662 21.3852 190.347 20.6488 190.347 19.7388C190.347 18.8288 189.662 18.0784 188.748 18.0784C187.833 18.0784 187.162 18.828 187.162 19.7388C187.162 20.6497 187.847 21.3852 188.748 21.3852ZM201.578 18.2774C201.578 21.0906 199.578 23.0254 196.701 23.0254H193.105C192.932 23.0254 192.811 22.8904 192.811 22.7142V13.8546C192.811 13.6925 192.931 13.5566 193.105 13.5566H196.701C199.578 13.5566 201.578 15.4502 201.578 18.2774ZM199.476 18.2774C199.476 16.6275 198.379 15.423 196.786 15.423H194.818V21.159H196.786C198.379 21.159 199.476 19.901 199.476 18.2774ZM205.229 16.2488C206.099 16.2488 206.795 16.6275 207.102 17.1413V16.7354C207.102 16.5732 207.25 16.4373 207.384 16.4373H208.736C208.896 16.4373 209.017 16.5723 209.017 16.7354V22.7423C209.017 22.9045 208.897 23.0263 208.736 23.0263H207.384C207.236 23.0263 207.102 22.9045 207.102 22.7423V22.3232C206.795 22.837 206.085 23.2157 205.215 23.2157C203.528 23.2157 201.962 21.8498 201.962 19.7257C201.962 17.6015 203.542 16.2497 205.228 16.2497M205.59 21.3992C206.486 21.3992 207.158 20.704 207.158 19.7388C207.158 18.7736 206.486 18.0784 205.59 18.0784C204.694 18.0784 204.023 18.7736 204.023 19.7388C204.023 20.704 204.694 21.3992 205.59 21.3992ZM212.777 16.2497C213.661 16.2497 214.37 16.6284 214.678 17.1158V13.8415C214.678 13.6793 214.812 13.5574 214.972 13.5574H216.324C216.484 13.5574 216.605 13.6793 216.605 13.8415V22.7423C216.605 22.9045 216.485 23.0263 216.324 23.0263H214.972C214.825 23.0263 214.692 22.9045 214.692 22.7423V22.3232C214.33 22.837 213.675 23.2157 212.804 23.2157C211.117 23.2157 209.552 21.8498 209.552 19.7257C209.552 17.6015 211.104 16.2497 212.777 16.2497ZM213.179 21.4168C214.07 21.4168 214.739 20.7146 214.739 19.7397C214.739 18.7648 214.07 18.0626 213.179 18.0626C212.287 18.0626 211.618 18.7648 211.618 19.7397C211.618 20.7146 212.287 21.4168 213.179 21.4168ZM220.365 16.2497C221.249 16.2497 221.958 16.6284 222.266 17.1158V13.8415C222.266 13.6793 222.4 13.5574 222.561 13.5574H223.912C224.073 13.5574 224.194 13.6793 224.194 13.8415V22.7423C224.194 22.9045 224.074 23.0263 223.912 23.0263H222.561C222.413 23.0263 222.279 22.9045 222.279 22.7423V22.3232C221.918 22.837 221.262 23.2157 220.392 23.2157C218.705 23.2157 217.139 21.8498 217.139 19.7257C217.139 17.6015 218.692 16.2497 220.365 16.2497M220.766 21.4168C221.658 21.4168 222.327 20.7146 222.327 19.7397C222.327 18.7648 221.658 18.0626 220.766 18.0626C219.874 18.0626 219.206 18.7648 219.206 19.7397C219.206 20.7146 219.874 21.4168 220.766 21.4168ZM231.055 16.4391H229.707C229.493 16.4391 229.386 16.5881 229.346 16.7503L228.101 21.4553L226.768 16.7503C226.691 16.4995 226.57 16.4391 226.396 16.4391H224.974C224.639 16.4391 224.578 16.6687 224.644 16.8993L226.449 22.7432C226.502 22.9053 226.609 23.0272 226.81 23.0272H227.627L227.453 23.6076C227.282 24.109 226.964 24.244 226.549 24.244C226.193 24.244 225.959 24.102 225.707 23.9372C225.61 23.8741 225.535 23.8443 225.44 23.8443C225.319 23.8443 225.235 23.8995 225.122 24.0678L224.722 24.6745C224.644 24.7998 224.601 24.8691 224.601 25.0032C224.601 25.2189 224.814 25.353 225.07 25.5003C225.509 25.7536 226.068 25.8807 226.683 25.8807C228.034 25.8807 228.904 25.1365 229.293 23.8925L231.31 16.9002C231.404 16.6293 231.323 16.4399 231.055 16.4399V16.4391ZM182.978 21.7341C182.27 22.6388 181.038 23.2078 179.645 23.2078C177.029 23.2069 174.984 21.2186 174.984 18.3861C174.984 15.5536 177.191 13.4146 179.98 13.4146C182.038 13.4146 183.685 14.3096 184.415 16.1085C184.438 16.1673 184.449 16.2137 184.449 16.2585C184.449 16.3444 184.394 16.4084 184.216 16.4706L182.912 16.9782C182.813 17.0124 182.727 17.0106 182.666 16.9817C182.599 16.951 182.558 16.8879 182.51 16.8011C182.046 15.9025 181.211 15.2924 179.93 15.2924C178.268 15.2924 177.079 16.6039 177.079 18.3046C177.079 20.0053 178.093 21.3072 179.977 21.3072C180.969 21.3072 181.761 20.8329 182.129 20.3157H180.952C180.78 20.3157 180.647 20.1815 180.647 20.0071V18.9919C180.647 18.8174 180.78 18.6833 180.952 18.6833H184.4C184.573 18.6833 184.705 18.8043 184.705 18.9788V22.7142C184.705 22.8887 184.573 23.0228 184.4 23.0228H183.285C183.112 23.0228 182.98 22.8887 182.98 22.7142V21.7332L182.978 21.7341Z" fill="#00112C"/>
</g>
</g>
<defs>
<clipPath id="clip0_2080_155750">
<rect width="263" height="34.3732" fill="white"/>
</clipPath>
<clipPath id="clip1_2080_155750">
<rect width="56.3653" height="12.4644" fill="white" transform="translate(174.984 13.4136)"/>
</clipPath>
</defs>
</svg>
